<svg xmlns="http://www.w3.org/2000/svg" width="599" height="370" viewBox="0 0 599 370">
  <g id="Group_167" data-name="Group 167" transform="translate(-18911 -1429)">
    <text id="McK_Media" data-name="McK
Media" transform="translate(18911 1429)" fill="#fff" font-size="170" font-family="AdallynDemo, Adallyn"><tspan x="0" y="150">McK</tspan><tspan x="0" y="335">Media</tspan></text>
    <g id="Group_2" data-name="Group 2" transform="translate(17356 259.515)">
      <path id="Path_24" data-name="Path 24" d="M1765.37,181.972s21.629.475,24.161,0,5.123-7.509,5.123-7.509V115.355s2.452-16.406-10.559-16.333-18.725,0-18.725,0" transform="translate(287.69 1128.483)" fill="none" stroke="#fff" stroke-linecap="round" stroke-linejoin="round" stroke-width="3"/>
      <path id="Path_25" data-name="Path 25" d="M1794.836,181.972s-21.629.475-24.16,0-5.122-7.509-5.122-7.509V115.355s-2.453-16.406,10.558-16.333,18.724,0,18.724,0" transform="translate(202 1127.697)" fill="none" stroke="#fff" stroke-linecap="round" stroke-linejoin="round" stroke-width="3"/>
      <g id="Ellipse_6" data-name="Ellipse 6" transform="translate(1989.714 1232.828)" fill="none" stroke="#fff" stroke-width="3">
        <ellipse cx="35.147" cy="35.933" rx="35.147" ry="35.933" stroke="none"/>
        <ellipse cx="35.147" cy="35.933" rx="33.647" ry="34.433" fill="none"/>
      </g>
      <path id="Path_26" data-name="Path 26" d="M691.5,73.337V45.76l12.695,12.824,5.169-5.226h.645V57.93l-5.813,5.861-9.086-9.218V69.914h40.413V54.572l-9.3,9.218-9.281-9.218v8.2L713.132,59.3l.3-13.539.565.352,12.229,12.472,12.835-12.472V73.337Z" transform="translate(1310.06 1144.574)" fill="#fff" stroke="#fff" stroke-width="1"/>
      <g id="Path_30" data-name="Path 30" transform="translate(2006.386 1249.5)" fill="none">
        <path d="M18.868,0A19.067,19.067,0,0,1,37.735,19.261,19.067,19.067,0,0,1,18.868,38.521,19.067,19.067,0,0,1,0,19.261,19.067,19.067,0,0,1,18.868,0Z" stroke="none"/>
        <path d="M 18.86757469177246 3.000003814697266 C 14.64089393615723 3.000003814697266 10.66392517089844 4.68359375 7.669254302978516 7.740652084350586 C 4.658233642578125 10.81439208984375 2.999996185302734 14.90559196472168 2.999996185302734 19.26062202453613 C 2.999996185302734 23.61565208435059 4.658233642578125 27.70685195922852 7.669254302978516 30.78059196472168 C 10.66392517089844 33.83765411376953 14.64089393615723 35.521240234375 18.86757469177246 35.521240234375 C 23.09424591064453 35.521240234375 27.07122421264648 33.83765411376953 30.06588363647461 30.78060150146484 C 33.076904296875 27.70685195922852 34.73514556884766 23.61565208435059 34.73514556884766 19.26062202453613 C 34.73514556884766 14.90559196472168 33.076904296875 10.81439208984375 30.06588363647461 7.740642547607422 C 27.07122421264648 4.68359375 23.09424591064453 3.000003814697266 18.86757469177246 3.000003814697266 M 18.86757469177246 3.814697265625e-06 C 29.28784561157227 3.814697265625e-06 37.73514556884766 8.623271942138672 37.73514556884766 19.26062202453613 C 37.73514556884766 29.89797210693359 29.28784561157227 38.521240234375 18.86757469177246 38.521240234375 C 8.447294235229492 38.521240234375 -3.814697265625e-06 29.89797210693359 -3.814697265625e-06 19.26062202453613 C -3.814697265625e-06 8.623271942138672 8.447294235229492 3.814697265625e-06 18.86757469177246 3.814697265625e-06 Z" stroke="none" fill="#fff"/>
      </g>
    </g>
  </g>
</svg>
